HIERARCHY
ROOT Hips
{
 OFFSET 0.000000 0.000000 0.000000
 CHANNELS 6 Xposition Yposition Zposition Yrotation Xrotation Zrotation
 JOINT Chest
 {
  OFFSET 0.000000 9.585900 0.002600
  CHANNELS 3 Yrotation Xrotation Zrotation
  JOINT Chest2
  {
   OFFSET 0.000000 9.601200 -0.005300
   CHANNELS 3 Yrotation Xrotation Zrotation
   JOINT Chest3
   {
    OFFSET 0.000000 9.561800 0.000000
    CHANNELS 3 Yrotation Xrotation Zrotation
    JOINT Chest4
    {
     OFFSET 0.000000 9.552100 0.000000
     CHANNELS 3 Yrotation Xrotation Zrotation
     JOINT Neck
     {
      OFFSET 0.000000 14.453000 0.000000
      CHANNELS 3 Yrotation Xrotation Zrotation
      JOINT Head
      {
       OFFSET 0.000000 8.936500 -0.011300
       CHANNELS 3 Yrotation Xrotation Zrotation
       End Site
       {
        OFFSET 0.000000 17.073600 -0.006000
       }
      }
     }
     JOINT RightCollar
     {
      OFFSET -2.921100 9.558500 0.000000
      CHANNELS 3 Yrotation Xrotation Zrotation
      JOINT RightShoulder
      {
       OFFSET -13.519700 0.000000 0.000000
       CHANNELS 3 Yrotation Xrotation Zrotation
       JOINT RightElbow
       {
        OFFSET 0.000000 -29.696600 0.000000
        CHANNELS 3 Yrotation Xrotation Zrotation
        JOINT RightWrist
        {
         OFFSET 0.000000 -24.004700 0.000000
         CHANNELS 3 Yrotation Xrotation Zrotation
         End Site
         {
          OFFSET 0.000000 -17.728500 0.000000
         }
        }
       }
      }
     }
     JOINT LeftCollar
     {
      OFFSET 2.921100 9.558500 0.000000
      CHANNELS 3 Yrotation Xrotation Zrotation
      JOINT LeftShoulder
      {
       OFFSET 13.519700 0.000000 0.000000
       CHANNELS 3 Yrotation Xrotation Zrotation
       JOINT LeftElbow
       {
        OFFSET 0.000000 -29.696600 0.000000
        CHANNELS 3 Yrotation Xrotation Zrotation
        JOINT LeftWrist
        {
         OFFSET 0.000000 -24.004700 0.000000
         CHANNELS 3 Yrotation Xrotation Zrotation
         End Site
         {
          OFFSET 0.000000 -17.728500 0.000000
         }
        }
       }
      }
     }
    }
   }
  }
 }
 JOINT RightHip
 {
  OFFSET -7.771700 -0.012900 -0.001300
  CHANNELS 3 Yrotation Xrotation Zrotation
  JOINT RightKnee
  {
   OFFSET 0.000000 -40.869800 0.001200
   CHANNELS 3 Yrotation Xrotation Zrotation
   JOINT RightAnkle
   {
    OFFSET 0.000000 -39.717900 0.002100
    CHANNELS 3 Yrotation Xrotation Zrotation
    JOINT RightToe
    {
     OFFSET 0.000000 -4.965400 11.033500
     CHANNELS 3 Yrotation Xrotation Zrotation
     End Site
     {
      OFFSET 0.000000 -1.423100 5.872300
     }
    }
   }
  }
 }
 JOINT LeftHip
 {
  OFFSET 7.771700 -0.012900 -0.001300
  CHANNELS 3 Yrotation Xrotation Zrotation
  JOINT LeftKnee
  {
   OFFSET 0.000000 -40.869800 0.001200
   CHANNELS 3 Yrotation Xrotation Zrotation
   JOINT LeftAnkle
   {
    OFFSET 0.000000 -39.717900 0.002100
    CHANNELS 3 Yrotation Xrotation Zrotation
    JOINT LeftToe
    {
     OFFSET 0.000000 -4.965400 11.033500
     CHANNELS 3 Yrotation Xrotation Zrotation
     End Site
     {
      OFFSET 0.000000 -1.423100 5.872300
     }
    }
   }
  }
 }
}
MOTION
Frames: 11
Frame Time: 0.008333
-31.500500 57.567937 95.044105 177.306079 -49.328204 -1.649535 1.404286 27.242610 4.524223 0.112423 4.884162 0.620277 0.202212 7.708865 0.985950 0.983275 22.347025 3.047928 -0.886537 35.037344 4.303596 -2.027884 29.422425 7.759848 3.454355 3.122120 -0.924094 33.217562 -49.174468 -22.174721 -119.339262 -34.157663 157.358508 -9.223860 -2.297106 -64.707500 -17.325759 -2.806201 -4.410346 -23.825332 -40.029604 5.677196 -99.990657 -51.888224 45.438176 -28.292257 -27.136241 40.322621 7.566036 -22.921777 -1.373090 0.940027 75.921886 7.439579 3.771312 -3.105270 1.039549 -0.016040 0.125348 -0.004673 -10.569576 -25.914999 -3.132313 40.166748 73.565574 35.832255 -24.265572 -2.588969 -2.306505 -0.264812 -0.725641 -0.118554
-31.501014 57.567646 95.043058 177.312640 -49.328205 -1.652646 1.408595 27.244549 4.527353 0.114961 4.886147 0.620449 0.203797 7.710104 0.986622 1.006438 22.353493 3.053700 -0.905306 35.032390 4.322526 -2.053741 29.439728 7.788209 3.426440 3.107957 -0.921747 33.294047 -49.169444 -22.252162 -120.237663 -34.551553 158.109387 -8.940150 -2.278081 -65.084440 -17.349764 -2.815712 -4.406341 -23.832509 -40.023458 5.680888 -99.966490 -51.901052 45.433363 -28.284286 -27.109523 40.321439 7.561998 -22.922003 -1.373440 0.949935 75.924214 7.446149 3.772122 -3.107026 1.039389 -0.017461 0.123740 -0.004338 -10.568157 -25.913864 -3.133010 40.160381 73.566064 35.827375 -24.276744 -2.592026 -2.305412 -0.257917 -0.722803 -0.117176
-31.502099 57.566991 95.042072 177.321156 -49.325821 -1.654637 1.403843 27.243108 4.523970 0.120637 4.890214 0.618834 0.205028 7.711261 0.986711 1.010067 22.354718 3.054199 -0.906644 35.040056 4.340865 -2.096218 29.458564 7.817318 3.428339 3.098758 -0.922237 33.388485 -49.159262 -22.342854 -121.203129 -34.959993 158.904071 -8.650041 -2.253119 -65.470191 -17.343056 -2.816297 -4.410095 -23.852758 -40.016483 5.691473 -99.878360 -51.927150 45.392132 -28.317828 -27.116497 40.318488 7.561807 -22.923075 -1.379723 0.945608 75.926897 7.443570 3.776879 -3.114718 1.035605 -0.019667 0.126672 -0.001758 -10.568675 -25.916793 -3.136319 40.154599 73.567392 35.821774 -24.286019 -2.591703 -2.302751 -0.265181 -0.721995 -0.117493
-31.502701 57.566248 95.041044 177.325778 -49.322955 -1.657449 1.407714 27.244303 4.525403 0.118188 4.888342 0.618443 0.207440 7.713719 0.985326 1.011827 22.355854 3.053889 -0.939827 35.065056 4.352476 -2.135909 29.472172 7.833244 3.442357 3.093753 -0.929734 33.455812 -49.155769 -22.408292 -122.191680 -35.368569 159.730615 -8.350910 -2.235142 -65.862424 -17.343619 -2.819766 -4.404510 -23.829015 -39.994506 5.658642 -99.876422 -51.922133 45.405896 -28.335904 -27.126311 40.309894 7.563045 -22.926172 -1.382648 0.941528 75.929886 7.443456 3.777394 -3.118480 1.033609 -0.019177 0.127464 -0.001110 -10.570043 -25.920756 -3.135612 40.150840 73.573623 35.812851 -24.268130 -2.588357 -2.294756 -0.279139 -0.724067 -0.118992
-31.504058 57.565618 95.039769 177.332523 -49.320865 -1.658131 1.410078 27.246193 4.520156 0.114736 4.886756 0.620598 0.205826 7.712784 0.986621 1.016074 22.363256 3.050508 -0.945765 35.060836 4.361509 -2.206700 29.520759 7.871572 3.443898 3.083468 -0.928089 33.479647 -49.153722 -22.429694 -123.150026 -35.744047 160.579152 -8.030596 -2.208381 -66.253826 -17.344640 -2.825401 -4.397178 -23.811719 -39.986235 5.638183 -99.857737 -51.923921 45.405431 -28.327524 -27.104178 40.314678 7.559953 -22.928633 -1.386557 0.945383 75.934175 7.444458 3.775257 -3.122126 1.033968 -0.018729 0.126907 -0.000524 -10.571930 -25.924096 -3.138968 40.149377 73.576802 35.806652 -24.262677 -2.585387 -2.287539 -0.253780 -0.725066 -0.120759
-31.504333 57.565174 95.038415 177.336891 -49.319668 -1.664056 1.421182 27.253485 4.526282 0.115361 4.888912 0.620517 0.200960 7.707933 0.985897 1.021268 22.368189 3.052857 -0.981123 35.073150 4.369073 -2.279658 29.557926 7.894818 3.456652 3.068371 -0.937045 33.698682 -49.117296 -22.594253 -124.224953 -36.078501 161.397916 -7.689400 -2.157439 -66.629438 -17.339767 -2.833167 -4.392473 -23.797095 -39.979218 5.619388 -99.868420 -51.922588 45.412055 -28.317835 -27.060751 40.363166 7.558505 -22.930447 -1.382889 0.956109 75.935744 7.455109 3.769223 -3.123928 1.033683 -0.020495 0.125476 -0.000676 -10.575432 -25.925377 -3.135349 40.135819 73.583422 35.794751 -24.263950 -2.587096 -2.284786 -0.260184 -0.725067 -0.121427
-31.505407 57.565613 95.036289 177.336273 -49.325148 -1.661484 1.428186 27.263814 4.529262 0.116038 4.890059 0.620673 0.198627 7.709158 0.984674 1.025058 22.368000 3.053890 -1.025130 35.092959 4.376480 -2.368860 29.591224 7.908642 3.478914 3.066064 -0.960249 33.819179 -49.103150 -22.674355 -125.215644 -36.365594 162.200061 -7.346560 -2.093279 -66.978480 -17.327359 -2.833912 -4.406316 -23.796259 -39.972028 5.620611 -99.885754 -51.925919 45.419569 -28.317226 -27.049386 40.381222 7.560394 -22.924805 -1.382906 0.952250 75.938873 7.448540 3.769120 -3.126955 1.036292 -0.020623 0.124189 -0.002209 -10.573252 -25.917568 -3.139251 40.113327 73.587293 35.773807 -24.267374 -2.592043 -2.279946 -0.285538 -0.721628 -0.123829
-31.506873 57.565286 95.034907 177.334529 -49.324301 -1.655878 1.433402 27.267710 4.529432 0.116626 4.891302 0.620855 0.202068 7.711313 0.984596 1.019040 22.361927 3.053508 -1.067739 35.118016 4.379024 -2.469560 29.619717 7.922648 3.488879 3.068852 -0.972898 33.910869 -49.087424 -22.727432 -126.146376 -36.618791 162.972228 -7.025848 -2.024869 -67.293990 -17.323217 -2.834497 -4.411763 -23.768795 -39.968163 5.607913 -99.900550 -51.938008 45.424450 -28.325172 -27.050331 40.382545 7.561518 -22.925972 -1.389503 0.958910 75.942761 7.454169 3.773157 -3.129777 1.035548 -0.021367 0.123787 -0.003500 -10.568122 -25.915552 -3.145803 40.104953 73.585911 35.765322 -24.256561 -2.597348 -2.283360 -0.256758 -0.714537 -0.118022
-31.508190 57.565083 95.033578 177.336545 -49.324442 -1.653771 1.433212 27.272111 4.528215 0.116569 4.892591 0.620989 0.208819 7.721286 0.987223 1.021400 22.356146 3.052870 -1.167954 35.149153 4.381290 -2.553318 29.630088 7.903517 3.488654 3.065349 -0.983136 33.944189 -49.086128 -22.746060 -127.052805 -36.857915 163.726823 -6.739523 -1.946770 -67.571309 -17.332045 -2.843362 -4.408919 -23.728193 -39.966163 5.588923 -99.919124 -51.954007 45.424535 -28.339362 -27.049891 40.390433 7.560732 -22.925613 -1.392462 0.966282 75.945243 7.459164 3.769995 -3.133483 1.032481 -0.020848 0.124381 -0.001453 -10.566873 -25.916118 -3.150323 40.112181 73.585890 35.770095 -24.251849 -2.592584 -2.285305 -0.285912 -0.717148 -0.112984
-31.508556 57.564416 95.032963 177.342523 -49.320721 -1.660247 1.431007 27.271117 4.531774 0.115093 4.894123 0.621287 0.207368 7.722793 0.986908 1.024501 22.361335 3.054242 -1.248647 35.163385 4.375784 -2.650102 29.650738 7.890933 3.494048 3.060779 -0.993427 33.978582 -49.082391 -22.763464 -128.020105 -37.106658 164.499855 -6.484334 -1.851605 -67.810801 -17.318538 -2.852255 -4.419711 -23.716830 -39.960881 5.587163 -99.940340 -51.967424 45.431086 -28.357084 -27.039896 40.409977 7.556990 -22.929811 -1.390225 0.971342 75.946369 7.464739 3.765229 -3.133635 1.027958 -0.020521 0.123160 -0.002316 -10.568577 -25.921174 -3.146241 40.115435 73.590323 35.771534 -24.247222 -2.587949 -2.282525 -0.259301 -0.717834 -0.112204
-31.509221 57.563954 95.032401 177.351242 -49.319046 -1.666898 1.425489 27.270300 4.532323 0.113847 4.895035 0.621569 0.203522 7.725645 0.986504 1.010639 22.369689 3.050380 -1.302864 35.167835 4.364649 -2.756040 29.674811 7.881084 3.515910 3.059180 -1.008154 34.013438 -49.076613 -22.774650 -129.068222 -37.365513 165.312552 -6.244940 -1.746143 -68.021740 -17.275330 -2.850752 -4.433121 -23.712123 -39.963704 5.587501 -99.982196 -51.975724 45.451092 -28.360736 -27.034435 40.439652 7.554592 -22.931063 -1.390109 0.979977 75.947053 7.475140 3.760137 -3.135717 1.018905 -0.019829 0.123672 0.005660 -10.567653 -25.923794 -3.144259 40.101077 73.595287 35.759344 -24.253009 -2.584421 -2.281033 -0.269144 -0.718181 -0.111226
